<svg width="144" height="64" viewBox="0 0 144 64" fill="none" xmlns="http://www.w3.org/2000/svg">
<g clip-path="url(#clip0_1_27)">
<path d="M69.001 20.2061V17.455H76.8022V17.871C76.8022 20.1166 76.2845 21.9596 75.2491 23.4C73.7183 25.5293 71.469 26.594 68.4922 26.594C65.8591 26.594 63.7125 25.8022 62.0567 24.2231C60.401 22.644 59.5709 20.5818 59.5709 18.0454C59.5709 15.5046 60.4144 13.4424 62.1058 11.8543C63.7973 10.2663 65.9573 9.47005 68.5949 9.47005C69.7151 9.47005 70.7371 9.61767 71.652 9.91291C72.5713 10.2081 73.3166 10.6018 73.8968 11.0939C74.4725 11.5859 74.901 11.9885 75.1732 12.3106C75.4454 12.6282 75.682 12.9682 75.8873 13.3305L73.0087 14.8291C72.8703 14.6144 72.7141 14.3997 72.5356 14.176C72.3571 13.9523 72.0893 13.6929 71.7323 13.3887C71.3753 13.0845 70.9201 12.8385 70.3667 12.6506C69.8133 12.4627 69.2152 12.3688 68.5681 12.3688C66.9213 12.3688 65.578 12.9235 64.5381 14.0284C63.5027 15.1333 62.985 16.4887 62.985 18.0946C62.985 19.5529 63.4536 20.8502 64.3864 21.9909C65.3191 23.1316 66.7071 23.6997 68.5413 23.6997C69.8177 23.6997 70.8977 23.4134 71.7903 22.8408C72.6829 22.2683 73.214 21.3915 73.3836 20.2105H69.001V20.2061Z" fill="#1B1D27"/>
<path d="M90.4139 26.2272L88.9099 22.7872H82.0505L80.5465 26.2272H76.9538L84.3221 9.49689H86.8213L93.9842 26.2272H90.4139ZM83.0948 20.1837H87.937L85.5404 14.2878L83.0948 20.1837Z" fill="#1B1D27"/>
<path d="M94.9527 9.83686H99.3888C100.732 9.83686 101.906 9.94869 102.906 10.1679C103.91 10.3871 104.843 10.812 105.708 11.4338C106.744 12.1854 107.547 13.1382 108.118 14.2834C108.69 15.4285 108.971 16.6811 108.971 18.041C108.971 20.9084 107.833 23.1092 105.557 24.6525C104.637 25.2743 103.704 25.6948 102.754 25.9051C101.803 26.1198 100.665 26.2227 99.3397 26.2227H94.9527V9.83686ZM98.2642 12.588V23.4716H99.2817C101.013 23.4716 102.401 23.1092 103.437 22.389C104.102 21.9328 104.619 21.311 104.99 20.5326C105.365 19.7542 105.552 18.9222 105.552 18.0365C105.552 17.1687 105.369 16.3456 105.003 15.5672C104.637 14.7888 104.124 14.1536 103.459 13.6616C102.455 12.9414 101.062 12.579 99.2773 12.579H98.2642V12.588Z" fill="#1B1D27"/>
<path d="M113.764 9.83686H117.08V20.8949C117.08 23.3374 116.415 24.988 115.089 25.8603C114.308 26.3524 113.38 26.5984 112.309 26.5984C110.814 26.5984 109.515 26.093 108.408 25.073L110.421 22.738C110.845 23.3284 111.399 23.6237 112.077 23.6237C112.688 23.6237 113.121 23.4358 113.376 23.06C113.63 22.6977 113.759 21.8165 113.759 20.4074V9.83686H113.764Z" fill="#1B1D27"/>
<path d="M129.366 9.83686V12.588H123.248V16.2472H129.112V18.9983H123.248V23.4716H129.366V26.2227H119.932V9.83686H129.366Z" fill="#1B1D27"/>
<path d="M140.738 12.588H136.913V26.2227H133.597V12.588H129.772V9.83686H140.733V12.588H140.738Z" fill="#1B1D27"/>
<path d="M72.723 43.5121V47.2474C71.4644 47.887 70.0631 48.2047 68.5145 48.2047C66.0331 48.2047 63.9578 47.4442 62.2932 45.9188C60.4723 44.2323 59.5663 42.1433 59.5663 39.6516C59.5663 36.999 60.4768 34.8607 62.2932 33.2369C63.8909 31.7965 65.9706 31.0763 68.5412 31.0763C70.0363 31.0763 71.4287 31.4118 72.723 32.0828V35.818C71.6162 34.5878 70.2505 33.975 68.6171 33.975C66.9525 33.975 65.5957 34.5341 64.5514 35.6569C63.5071 36.7798 62.9849 38.1262 62.9849 39.7008C62.9849 41.4186 63.5606 42.783 64.7165 43.7939C65.8724 44.8004 67.2158 45.3059 68.7465 45.3059C70.3398 45.3059 71.6653 44.711 72.723 43.5121Z" fill="#1B1D27"/>
<path d="M74.7581 31.452H79.6762C81.5461 31.452 82.9921 31.8636 84.0097 32.6822C85.1299 33.5992 85.6922 34.8294 85.6922 36.3682C85.6922 38.0725 85.0272 39.3564 83.7017 40.2242C83.193 40.5687 82.5726 40.8058 81.8407 40.9355L87.1426 47.8378H83.0144L78.4757 41.2531H78.0695V47.8378H74.7536V31.452H74.7581ZM78.074 34.0555V38.9941H79.0157C79.2879 38.9941 79.5557 38.9717 79.819 38.9314C80.0823 38.8912 80.426 38.8017 80.8499 38.663C81.2739 38.5244 81.6175 38.2694 81.8809 37.9026C82.1442 37.5357 82.2781 37.0705 82.2781 36.5158C82.2781 35.9611 82.1486 35.4959 81.8943 35.1291C81.6399 34.7623 81.3007 34.5073 80.8767 34.3686C80.4527 34.23 80.1136 34.145 79.8592 34.1092C79.6048 34.0779 79.3415 34.06 79.0692 34.06H78.074V34.0555Z" fill="#1B1D27"/>
<path d="M88.3744 31.452H91.6903V47.8423H88.3744V31.452Z" fill="#1B1D27"/>
<path d="M93.6763 47.8378L96.8361 31.1568H99.13L103.745 41.8704L108.565 31.1568H110.858L113.715 47.8378H110.35L108.819 37.7415L104.155 48.0615H103.236L98.7729 37.7415L97.0413 47.8378H93.6763Z" fill="#1B1D27"/>
<path d="M125.135 31.452V34.2031H119.017V37.8623H124.881V40.6134H119.017V45.0867H125.135V47.8378H115.701V31.452H125.135Z" fill="#1B1D27"/>
<path d="M138.899 47.8378L137.395 44.3978H130.54L129.036 47.8378H125.443L132.811 31.1076H135.311L142.474 47.8378H138.899ZM131.584 41.7944H136.426L134.03 35.8985L131.584 41.7944Z" fill="#1B1D27"/>
<path d="M21.8414 33.2773V31.2643H27.3844V31.5684C27.3844 33.2102 27.0139 34.5566 26.2776 35.6123C25.1931 37.1691 23.5909 37.9474 21.4799 37.9474C19.61 37.9474 18.0837 37.3704 16.9055 36.2118C15.7273 35.0576 15.1382 33.5501 15.1382 31.6937C15.1382 29.8373 15.7407 28.3253 16.9412 27.1667C18.1417 26.0036 19.6769 25.4221 21.5514 25.4221C22.3502 25.4221 23.0732 25.5294 23.7248 25.7442C24.3764 25.9589 24.9075 26.2452 25.318 26.6075C25.7286 26.9654 26.0321 27.2651 26.224 27.4977C26.4159 27.7303 26.5855 27.9808 26.7328 28.2448L24.6843 29.3407C24.5861 29.1842 24.4746 29.0276 24.3496 28.8666C24.2246 28.7055 24.0327 28.5132 23.7783 28.2895C23.524 28.0658 23.2026 27.8869 22.8099 27.7482C22.4172 27.6095 21.9932 27.5424 21.5335 27.5424C20.3642 27.5424 19.4092 27.945 18.6728 28.7547C17.9364 29.5644 17.566 30.553 17.566 31.7295C17.566 32.7941 17.8962 33.747 18.5612 34.579C19.2262 35.411 20.208 35.8271 21.5112 35.8271C22.4172 35.8271 23.1848 35.6168 23.8185 35.1963C24.4522 34.7758 24.8316 34.1361 24.9521 33.2728H21.8414V33.2773Z" fill="#1B1D27"/>
<path d="M37.5955 34.5162V37.2495C36.7029 37.7147 35.7077 37.9518 34.6053 37.9518C32.8425 37.9518 31.3697 37.3926 30.1871 36.2787C28.8928 35.0441 28.2502 33.5187 28.2502 31.6936C28.2502 29.7521 28.8973 28.191 30.1871 27.001C31.3206 25.9453 32.8023 25.4175 34.6232 25.4175C35.6854 25.4175 36.6761 25.6635 37.591 26.1556V28.8888C36.8056 27.9897 35.8326 27.5423 34.6767 27.5423C33.4941 27.5423 32.5301 27.9539 31.7893 28.7725C31.0484 29.5911 30.6735 30.5797 30.6735 31.7294C30.6735 32.9864 31.0841 33.9839 31.9053 34.722C32.7265 35.4601 33.6815 35.8269 34.766 35.8269C35.9085 35.8314 36.8502 35.393 37.5955 34.5162Z" fill="#1B1D27"/>
<path d="M26.947 54.02L0 27.01L26.947 0L53.894 27.01L26.947 54.02ZM1.89227 27.01L26.947 52.1233L52.0017 27.01L26.947 1.89669L1.89227 27.01Z" fill="#F47940"/>
<path d="M26.947 58.878L0 31.8725L26.947 4.86252L53.894 31.8725L26.947 58.878ZM1.89227 31.8725L26.947 56.9858L52.0017 31.8725L26.947 6.75921L1.89227 31.8725Z" fill="#F47940"/>
<path d="M26.947 64L0 36.99L26.947 9.98001L53.894 36.99L26.947 64ZM1.89227 36.99L26.947 62.1033L52.0017 36.99L26.947 11.8767L1.89227 36.99Z" fill="#F47940"/>
<path d="M144 55.8541H58.4462V57.6434H144V55.8541Z" fill="#F47940"/>
</g>
<defs>
<clipPath id="clip0_1_27">
<rect width="144" height="64" fill="white"/>
</clipPath>
</defs>
</svg>
